<?xml version="1.0" encoding="UTF-8"?>
<svg xmlns="http://www.w3.org/2000/svg" xmlns:xlink="http://www.w3.org/1999/xlink" width="32px" height="32px" viewBox="0 0 32 32" version="1.1">
<g id="surface1">
<path style=" stroke:none;fill-rule:nonzero;fill:rgb(99.607843%,36.470589%,0%);fill-opacity:1;" d="M 12.484375 8.140625 C 12.78125 8.3125 12.972656 8.578125 13.082031 8.902344 C 13.136719 9.203125 13.117188 9.546875 12.960938 9.816406 C 12.765625 10.101562 12.511719 10.269531 12.207031 10.421875 C 11.816406 10.621094 11.464844 10.882812 11.125 11.15625 C 11.109375 11.167969 11.09375 11.183594 11.074219 11.195312 C 10.640625 11.542969 10.242188 11.9375 9.914062 12.386719 C 9.875 12.4375 9.835938 12.488281 9.796875 12.539062 C 9.183594 13.355469 8.785156 14.324219 8.5625 15.316406 C 8.558594 15.34375 8.554688 15.371094 8.546875 15.398438 C 8.449219 15.882812 8.425781 16.367188 8.429688 16.859375 C 8.429688 16.890625 8.429688 16.921875 8.429688 16.953125 C 8.433594 18.957031 9.222656 20.710938 10.59375 22.15625 C 10.617188 22.183594 10.644531 22.207031 10.667969 22.234375 C 10.839844 22.410156 11.023438 22.566406 11.21875 22.71875 C 11.246094 22.738281 11.246094 22.738281 11.273438 22.761719 C 11.757812 23.144531 12.285156 23.457031 12.84375 23.71875 C 12.878906 23.734375 12.914062 23.75 12.949219 23.769531 C 13.488281 24.007812 14.046875 24.167969 14.625 24.28125 C 14.648438 24.285156 14.671875 24.292969 14.699219 24.296875 C 16.503906 24.675781 18.558594 24.195312 20.097656 23.21875 C 20.816406 22.75 21.484375 22.179688 21.996094 21.488281 C 22.03125 21.441406 22.066406 21.394531 22.101562 21.347656 C 22.3125 21.078125 22.484375 20.792969 22.65625 20.5 C 22.667969 20.476562 22.679688 20.457031 22.695312 20.433594 C 23.023438 19.863281 23.253906 19.234375 23.40625 18.59375 C 23.417969 18.546875 23.417969 18.546875 23.429688 18.5 C 23.660156 17.492188 23.675781 16.320312 23.4375 15.3125 C 23.429688 15.285156 23.425781 15.253906 23.417969 15.222656 C 23.042969 13.644531 22.164062 12.160156 20.875 11.15625 C 20.835938 11.125 20.796875 11.09375 20.757812 11.0625 C 20.382812 10.765625 19.984375 10.503906 19.554688 10.292969 C 19.277344 10.15625 19.066406 9.957031 18.9375 9.675781 C 18.839844 9.320312 18.875 8.933594 19.042969 8.605469 C 19.207031 8.359375 19.417969 8.136719 19.71875 8.0625 C 20.578125 7.957031 21.453125 8.636719 22.097656 9.132812 C 22.160156 9.183594 22.21875 9.230469 22.28125 9.28125 C 22.308594 9.304688 22.335938 9.324219 22.367188 9.347656 C 22.828125 9.714844 23.277344 10.140625 23.65625 10.59375 C 23.675781 10.617188 23.675781 10.617188 23.695312 10.640625 C 24.144531 11.160156 24.527344 11.738281 24.84375 12.34375 C 24.859375 12.371094 24.859375 12.371094 24.875 12.402344 C 26.007812 14.554688 26.25 17.058594 25.65625 19.40625 C 25.648438 19.4375 25.640625 19.46875 25.632812 19.503906 C 25.269531 20.917969 24.53125 22.253906 23.5625 23.34375 C 23.535156 23.375 23.507812 23.402344 23.480469 23.433594 C 23.164062 23.789062 22.832031 24.140625 22.457031 24.4375 C 22.371094 24.503906 22.289062 24.574219 22.203125 24.648438 C 21.789062 24.992188 21.332031 25.289062 20.855469 25.550781 C 20.804688 25.578125 20.753906 25.609375 20.707031 25.636719 C 19.855469 26.113281 18.929688 26.421875 17.976562 26.617188 C 17.949219 26.625 17.921875 26.628906 17.894531 26.636719 C 17.316406 26.746094 16.742188 26.796875 16.152344 26.792969 C 16.054688 26.789062 15.953125 26.792969 15.855469 26.792969 C 15.328125 26.789062 14.808594 26.753906 14.289062 26.664062 C 14.257812 26.660156 14.226562 26.652344 14.191406 26.648438 C 12.40625 26.332031 10.722656 25.488281 9.375 24.28125 C 9.359375 24.265625 9.34375 24.253906 9.328125 24.238281 C 8.941406 23.894531 8.570312 23.535156 8.25 23.125 C 8.207031 23.070312 8.160156 23.019531 8.117188 22.964844 C 7.828125 22.613281 7.574219 22.238281 7.347656 21.84375 C 7.324219 21.800781 7.296875 21.757812 7.273438 21.714844 C 6.230469 19.933594 5.832031 17.761719 6.09375 15.71875 C 6.097656 15.6875 6.101562 15.65625 6.105469 15.621094 C 6.363281 13.652344 7.21875 11.84375 8.5625 10.378906 C 8.621094 10.316406 8.679688 10.25 8.734375 10.1875 C 8.929688 9.960938 9.148438 9.757812 9.375 9.5625 C 9.402344 9.539062 9.433594 9.511719 9.460938 9.488281 C 11.515625 7.695312 11.515625 7.695312 12.484375 8.140625 Z M 12.484375 8.140625 "/>
<path style=" stroke:none;fill-rule:nonzero;fill:rgb(99.607843%,36.470589%,0%);fill-opacity:1;" d="M 16.835938 5.664062 C 17.214844 5.921875 17.460938 6.269531 17.5625 6.71875 C 17.574219 6.835938 17.574219 6.949219 17.574219 7.066406 C 17.574219 7.097656 17.574219 7.132812 17.574219 7.167969 C 17.574219 7.277344 17.574219 7.390625 17.574219 7.5 C 17.574219 7.582031 17.574219 7.660156 17.574219 7.742188 C 17.574219 7.933594 17.574219 8.128906 17.574219 8.324219 C 17.574219 8.484375 17.574219 8.640625 17.574219 8.800781 C 17.574219 8.824219 17.574219 8.84375 17.574219 8.867188 C 17.574219 8.914062 17.574219 8.960938 17.574219 9.003906 C 17.574219 9.433594 17.574219 9.863281 17.574219 10.292969 C 17.574219 10.664062 17.574219 11.03125 17.574219 11.398438 C 17.574219 11.828125 17.574219 12.253906 17.574219 12.683594 C 17.574219 12.730469 17.574219 12.773438 17.574219 12.820312 C 17.574219 12.84375 17.574219 12.867188 17.574219 12.890625 C 17.574219 13.046875 17.574219 13.207031 17.574219 13.363281 C 17.574219 13.574219 17.574219 13.789062 17.574219 14 C 17.574219 14.078125 17.574219 14.15625 17.574219 14.234375 C 17.574219 14.34375 17.574219 14.449219 17.574219 14.554688 C 17.574219 14.585938 17.574219 14.617188 17.574219 14.648438 C 17.570312 15.109375 17.398438 15.535156 17.078125 15.867188 C 16.714844 16.195312 16.300781 16.3125 15.820312 16.292969 C 15.644531 16.28125 15.5 16.234375 15.34375 16.15625 C 15.316406 16.144531 15.292969 16.128906 15.265625 16.117188 C 14.851562 15.894531 14.621094 15.558594 14.464844 15.125 C 14.425781 14.972656 14.429688 14.816406 14.429688 14.660156 C 14.429688 14.625 14.429688 14.59375 14.429688 14.558594 C 14.429688 14.445312 14.429688 14.332031 14.429688 14.21875 C 14.429688 14.136719 14.429688 14.054688 14.429688 13.972656 C 14.425781 13.777344 14.425781 13.578125 14.425781 13.378906 C 14.425781 13.21875 14.425781 13.058594 14.425781 12.898438 C 14.425781 12.441406 14.425781 11.984375 14.425781 11.527344 C 14.425781 11.503906 14.425781 11.476562 14.425781 11.453125 C 14.425781 11.429688 14.425781 11.402344 14.425781 11.378906 C 14.425781 10.980469 14.425781 10.578125 14.425781 10.179688 C 14.421875 9.769531 14.421875 9.359375 14.421875 8.949219 C 14.421875 8.71875 14.421875 8.488281 14.421875 8.261719 C 14.421875 8.042969 14.421875 7.828125 14.421875 7.609375 C 14.421875 7.53125 14.421875 7.453125 14.421875 7.371094 C 14.421875 7.265625 14.421875 7.15625 14.421875 7.046875 C 14.421875 7.015625 14.421875 6.984375 14.421875 6.953125 C 14.425781 6.539062 14.585938 6.214844 14.859375 5.914062 C 14.886719 5.890625 14.910156 5.867188 14.9375 5.84375 C 14.960938 5.820312 14.960938 5.820312 14.980469 5.800781 C 15.484375 5.316406 16.261719 5.324219 16.835938 5.664062 Z M 16.835938 5.664062 "/>
<path style=" stroke:none;fill-rule:nonzero;fill:rgb(99.607843%,23.529412%,4.313726%);fill-opacity:1;" d="M 8.46875 18.1875 C 8.542969 18.328125 8.578125 18.472656 8.617188 18.625 C 8.621094 18.652344 8.628906 18.679688 8.636719 18.710938 C 8.644531 18.738281 8.652344 18.765625 8.660156 18.792969 C 8.664062 18.816406 8.671875 18.84375 8.675781 18.867188 C 8.6875 18.941406 8.679688 18.992188 8.65625 19.0625 C 8.578125 18.847656 8.53125 18.632812 8.5 18.40625 C 8.480469 18.40625 8.457031 18.40625 8.4375 18.40625 C 8.449219 18.335938 8.457031 18.261719 8.46875 18.1875 Z M 8.46875 18.1875 "/>
<path style=" stroke:none;fill-rule:nonzero;fill:rgb(99.607843%,25.882354%,3.921569%);fill-opacity:1;" d="M 23.21875 19.3125 C 23.257812 19.394531 23.242188 19.429688 23.222656 19.515625 C 23.21875 19.539062 23.210938 19.566406 23.207031 19.589844 C 23.1875 19.65625 23.1875 19.65625 23.15625 19.71875 C 23.136719 19.71875 23.113281 19.71875 23.09375 19.71875 C 23.074219 19.78125 23.050781 19.84375 23.03125 19.90625 C 22.988281 19.777344 23.039062 19.695312 23.089844 19.574219 C 23.101562 19.542969 23.101562 19.542969 23.117188 19.507812 C 23.183594 19.347656 23.183594 19.347656 23.21875 19.3125 Z M 23.21875 19.3125 "/>
<path style=" stroke:none;fill-rule:nonzero;fill:rgb(99.607843%,26.274511%,1.568628%);fill-opacity:1;" d="M 14.78125 6 C 14.792969 6.019531 14.800781 6.042969 14.8125 6.0625 C 14.789062 6.128906 14.789062 6.128906 14.75 6.207031 C 14.738281 6.234375 14.726562 6.257812 14.714844 6.285156 C 14.707031 6.304688 14.695312 6.324219 14.6875 6.34375 C 14.65625 6.34375 14.625 6.34375 14.59375 6.34375 C 14.632812 6.203125 14.683594 6.109375 14.78125 6 Z M 14.78125 6 "/>
<path style=" stroke:none;fill-rule:nonzero;fill:rgb(99.215686%,33.725491%,5.098039%);fill-opacity:1;" d="M 6.3125 14.5 C 6.34375 14.5 6.375 14.5 6.40625 14.5 C 6.394531 14.570312 6.386719 14.644531 6.375 14.71875 C 6.34375 14.71875 6.3125 14.71875 6.28125 14.71875 C 6.292969 14.648438 6.300781 14.574219 6.3125 14.5 Z M 6.3125 14.5 "/>
<path style=" stroke:none;fill-rule:nonzero;fill:rgb(99.607843%,25.490198%,6.666667%);fill-opacity:1;" d="M 12.59375 8.25 C 12.699219 8.296875 12.769531 8.351562 12.84375 8.4375 C 12.84375 8.457031 12.84375 8.480469 12.84375 8.5 C 12.78125 8.5 12.78125 8.5 12.703125 8.429688 C 12.625 8.34375 12.625 8.34375 12.59375 8.25 Z M 12.59375 8.25 "/>
</g>
</svg>
