<?xml version="1.0" encoding="UTF-8"?>
<svg xmlns="http://www.w3.org/2000/svg" xmlns:xlink="http://www.w3.org/1999/xlink" width="24px" height="24px" viewBox="0 0 24 24" version="1.1">
<g id="surface1">
<path style=" stroke:none;fill-rule:nonzero;fill:rgb(99.607843%,36.470589%,0%);fill-opacity:1;" d="M 9.363281 6.105469 C 9.585938 6.234375 9.730469 6.433594 9.8125 6.675781 C 9.851562 6.902344 9.839844 7.160156 9.722656 7.363281 C 9.574219 7.574219 9.382812 7.699219 9.15625 7.816406 C 8.863281 7.964844 8.597656 8.160156 8.34375 8.367188 C 8.332031 8.375 8.320312 8.386719 8.308594 8.398438 C 7.980469 8.65625 7.683594 8.953125 7.433594 9.289062 C 7.40625 9.328125 7.378906 9.367188 7.347656 9.402344 C 6.886719 10.015625 6.585938 10.742188 6.421875 11.488281 C 6.417969 11.507812 6.414062 11.527344 6.410156 11.546875 C 6.335938 11.914062 6.320312 12.273438 6.320312 12.644531 C 6.320312 12.667969 6.320312 12.691406 6.320312 12.714844 C 6.328125 14.21875 6.914062 15.535156 7.945312 16.617188 C 7.964844 16.636719 7.980469 16.65625 8 16.675781 C 8.128906 16.808594 8.269531 16.925781 8.414062 17.039062 C 8.433594 17.054688 8.433594 17.054688 8.453125 17.070312 C 8.816406 17.359375 9.214844 17.59375 9.632812 17.789062 C 9.660156 17.800781 9.683594 17.8125 9.710938 17.824219 C 10.113281 18.007812 10.535156 18.125 10.96875 18.210938 C 10.988281 18.214844 11.003906 18.21875 11.023438 18.222656 C 12.378906 18.507812 13.917969 18.144531 15.074219 17.414062 C 15.613281 17.0625 16.113281 16.636719 16.496094 16.117188 C 16.523438 16.078125 16.550781 16.046875 16.578125 16.011719 C 16.734375 15.808594 16.863281 15.59375 16.992188 15.375 C 17 15.359375 17.011719 15.34375 17.019531 15.324219 C 17.265625 14.898438 17.441406 14.425781 17.554688 13.945312 C 17.5625 13.910156 17.5625 13.910156 17.570312 13.875 C 17.746094 13.117188 17.757812 12.238281 17.578125 11.484375 C 17.574219 11.460938 17.566406 11.441406 17.5625 11.417969 C 17.28125 10.230469 16.625 9.121094 15.65625 8.367188 C 15.625 8.34375 15.597656 8.320312 15.566406 8.296875 C 15.285156 8.074219 14.988281 7.878906 14.664062 7.71875 C 14.457031 7.617188 14.300781 7.46875 14.203125 7.253906 C 14.128906 6.988281 14.15625 6.699219 14.28125 6.453125 C 14.40625 6.269531 14.5625 6.101562 14.789062 6.046875 C 15.433594 5.96875 16.089844 6.476562 16.574219 6.851562 C 16.621094 6.886719 16.664062 6.925781 16.710938 6.960938 C 16.730469 6.976562 16.753906 6.992188 16.773438 7.011719 C 17.121094 7.289062 17.457031 7.605469 17.742188 7.945312 C 17.757812 7.960938 17.757812 7.960938 17.773438 7.980469 C 18.105469 8.371094 18.394531 8.800781 18.632812 9.257812 C 18.644531 9.28125 18.644531 9.28125 18.65625 9.300781 C 19.503906 10.914062 19.6875 12.792969 19.242188 14.554688 C 19.234375 14.578125 19.230469 14.601562 19.222656 14.628906 C 18.949219 15.6875 18.398438 16.691406 17.671875 17.507812 C 17.652344 17.53125 17.632812 17.550781 17.613281 17.574219 C 17.371094 17.839844 17.125 18.105469 16.84375 18.328125 C 16.777344 18.378906 16.714844 18.429688 16.652344 18.484375 C 16.339844 18.746094 16 18.96875 15.640625 19.164062 C 15.605469 19.183594 15.566406 19.207031 15.527344 19.226562 C 14.890625 19.585938 14.199219 19.816406 13.484375 19.964844 C 13.460938 19.96875 13.441406 19.972656 13.417969 19.976562 C 12.988281 20.0625 12.554688 20.097656 12.117188 20.09375 C 12.039062 20.09375 11.964844 20.09375 11.890625 20.09375 C 11.496094 20.09375 11.105469 20.066406 10.714844 19.996094 C 10.691406 19.992188 10.667969 19.988281 10.644531 19.984375 C 9.304688 19.75 8.042969 19.117188 7.03125 18.210938 C 7.019531 18.199219 7.007812 18.191406 6.996094 18.179688 C 6.703125 17.921875 6.429688 17.648438 6.1875 17.34375 C 6.152344 17.304688 6.121094 17.261719 6.085938 17.222656 C 5.871094 16.960938 5.679688 16.679688 5.511719 16.382812 C 5.492188 16.351562 5.472656 16.316406 5.453125 16.285156 C 4.675781 14.949219 4.371094 13.320312 4.570312 11.789062 C 4.574219 11.765625 4.578125 11.742188 4.578125 11.71875 C 4.773438 10.238281 5.414062 8.882812 6.421875 7.785156 C 6.464844 7.738281 6.507812 7.6875 6.550781 7.640625 C 6.699219 7.46875 6.859375 7.316406 7.03125 7.171875 C 7.050781 7.152344 7.074219 7.132812 7.097656 7.113281 C 8.636719 5.769531 8.636719 5.769531 9.363281 6.105469 Z M 9.363281 6.105469 "/>
<path style=" stroke:none;fill-rule:nonzero;fill:rgb(99.607843%,36.470589%,0%);fill-opacity:1;" d="M 12.625 4.25 C 12.910156 4.441406 13.09375 4.703125 13.171875 5.039062 C 13.179688 5.125 13.179688 5.210938 13.179688 5.296875 C 13.179688 5.324219 13.179688 5.347656 13.179688 5.375 C 13.179688 5.457031 13.179688 5.542969 13.179688 5.625 C 13.179688 5.683594 13.179688 5.746094 13.179688 5.804688 C 13.179688 5.953125 13.179688 6.097656 13.179688 6.242188 C 13.179688 6.363281 13.179688 6.480469 13.179688 6.601562 C 13.179688 6.617188 13.179688 6.632812 13.179688 6.652344 C 13.179688 6.6875 13.179688 6.71875 13.179688 6.753906 C 13.179688 7.078125 13.179688 7.398438 13.179688 7.722656 C 13.179688 7.996094 13.179688 8.273438 13.179688 8.550781 C 13.179688 8.871094 13.179688 9.191406 13.179688 9.511719 C 13.179688 9.546875 13.179688 9.582031 13.179688 9.617188 C 13.179688 9.632812 13.179688 9.648438 13.179688 9.667969 C 13.179688 9.785156 13.179688 9.902344 13.179688 10.023438 C 13.183594 10.183594 13.179688 10.339844 13.179688 10.5 C 13.179688 10.558594 13.179688 10.617188 13.179688 10.675781 C 13.179688 10.757812 13.179688 10.835938 13.179688 10.917969 C 13.179688 10.941406 13.179688 10.964844 13.179688 10.988281 C 13.179688 11.332031 13.046875 11.652344 12.808594 11.898438 C 12.535156 12.148438 12.226562 12.234375 11.863281 12.21875 C 11.734375 12.210938 11.625 12.175781 11.507812 12.117188 C 11.488281 12.109375 11.46875 12.097656 11.449219 12.085938 C 11.140625 11.917969 10.964844 11.667969 10.851562 11.34375 C 10.816406 11.226562 10.820312 11.113281 10.820312 10.996094 C 10.820312 10.96875 10.820312 10.945312 10.820312 10.917969 C 10.820312 10.832031 10.820312 10.75 10.820312 10.664062 C 10.820312 10.601562 10.820312 10.542969 10.820312 10.480469 C 10.820312 10.332031 10.820312 10.183594 10.820312 10.035156 C 10.820312 9.914062 10.820312 9.792969 10.820312 9.671875 C 10.820312 9.332031 10.820312 8.988281 10.820312 8.644531 C 10.820312 8.625 10.820312 8.609375 10.820312 8.589844 C 10.820312 8.570312 10.820312 8.550781 10.820312 8.535156 C 10.820312 8.234375 10.820312 7.933594 10.816406 7.636719 C 10.816406 7.328125 10.816406 7.019531 10.816406 6.710938 C 10.816406 6.539062 10.816406 6.367188 10.816406 6.195312 C 10.816406 6.03125 10.816406 5.871094 10.816406 5.707031 C 10.816406 5.648438 10.816406 5.589844 10.816406 5.53125 C 10.816406 5.449219 10.816406 5.367188 10.816406 5.285156 C 10.816406 5.261719 10.816406 5.238281 10.816406 5.214844 C 10.820312 4.90625 10.9375 4.660156 11.144531 4.4375 C 11.164062 4.417969 11.183594 4.402344 11.203125 4.382812 C 11.21875 4.367188 11.21875 4.367188 11.234375 4.347656 C 11.613281 3.988281 12.199219 3.992188 12.625 4.25 Z M 12.625 4.25 "/>
<path style=" stroke:none;fill-rule:nonzero;fill:rgb(99.607843%,23.529412%,4.313726%);fill-opacity:1;" d="M 6.351562 13.640625 C 6.40625 13.746094 6.433594 13.855469 6.460938 13.96875 C 6.46875 13.988281 6.472656 14.011719 6.476562 14.03125 C 6.484375 14.054688 6.488281 14.074219 6.492188 14.09375 C 6.5 14.113281 6.503906 14.132812 6.507812 14.152344 C 6.515625 14.207031 6.507812 14.242188 6.492188 14.296875 C 6.433594 14.132812 6.398438 13.976562 6.375 13.804688 C 6.359375 13.804688 6.34375 13.804688 6.328125 13.804688 C 6.335938 13.75 6.34375 13.695312 6.351562 13.640625 Z M 6.351562 13.640625 "/>
<path style=" stroke:none;fill-rule:nonzero;fill:rgb(99.607843%,25.882354%,3.921569%);fill-opacity:1;" d="M 17.414062 14.484375 C 17.445312 14.546875 17.433594 14.570312 17.417969 14.636719 C 17.414062 14.65625 17.410156 14.675781 17.402344 14.691406 C 17.390625 14.742188 17.390625 14.742188 17.367188 14.789062 C 17.351562 14.789062 17.335938 14.789062 17.320312 14.789062 C 17.304688 14.835938 17.289062 14.882812 17.273438 14.929688 C 17.242188 14.832031 17.28125 14.769531 17.316406 14.679688 C 17.328125 14.65625 17.328125 14.65625 17.335938 14.632812 C 17.386719 14.511719 17.386719 14.511719 17.414062 14.484375 Z M 17.414062 14.484375 "/>
<path style=" stroke:none;fill-rule:nonzero;fill:rgb(99.607843%,26.274511%,1.568628%);fill-opacity:1;" d="M 11.085938 4.5 C 11.09375 4.515625 11.101562 4.53125 11.109375 4.546875 C 11.089844 4.597656 11.089844 4.597656 11.0625 4.65625 C 11.054688 4.675781 11.046875 4.695312 11.035156 4.714844 C 11.03125 4.726562 11.023438 4.742188 11.015625 4.757812 C 10.992188 4.757812 10.96875 4.757812 10.945312 4.757812 C 10.976562 4.652344 11.011719 4.582031 11.085938 4.5 Z M 11.085938 4.5 "/>
<path style=" stroke:none;fill-rule:nonzero;fill:rgb(99.215686%,33.725491%,5.098039%);fill-opacity:1;" d="M 4.734375 10.875 C 4.757812 10.875 4.78125 10.875 4.804688 10.875 C 4.796875 10.929688 4.789062 10.984375 4.78125 11.039062 C 4.757812 11.039062 4.734375 11.039062 4.710938 11.039062 C 4.71875 10.984375 4.726562 10.929688 4.734375 10.875 Z M 4.734375 10.875 "/>
<path style=" stroke:none;fill-rule:nonzero;fill:rgb(99.607843%,25.490198%,6.666667%);fill-opacity:1;" d="M 9.445312 6.1875 C 9.523438 6.222656 9.578125 6.261719 9.632812 6.328125 C 9.632812 6.34375 9.632812 6.359375 9.632812 6.375 C 9.585938 6.375 9.585938 6.375 9.527344 6.320312 C 9.46875 6.257812 9.46875 6.257812 9.445312 6.1875 Z M 9.445312 6.1875 "/>
</g>
</svg>
