<?xml version="1.0" encoding="UTF-8"?>
<svg xmlns="http://www.w3.org/2000/svg" xmlns:xlink="http://www.w3.org/1999/xlink" width="48px" height="48px" viewBox="0 0 48 48" version="1.1">
<g id="surface1">
<path style=" stroke:none;fill-rule:nonzero;fill:rgb(99.607843%,36.470589%,0%);fill-opacity:1;" d="M 18.726562 12.207031 C 19.171875 12.464844 19.460938 12.867188 19.621094 13.351562 C 19.703125 13.808594 19.675781 14.320312 19.441406 14.722656 C 19.144531 15.148438 18.765625 15.402344 18.3125 15.632812 C 17.726562 15.933594 17.199219 16.324219 16.6875 16.734375 C 16.664062 16.753906 16.640625 16.773438 16.613281 16.792969 C 15.960938 17.316406 15.367188 17.902344 14.871094 18.578125 C 14.8125 18.65625 14.753906 18.730469 14.695312 18.808594 C 13.777344 20.035156 13.175781 21.484375 12.847656 22.976562 C 12.839844 23.015625 12.828125 23.054688 12.820312 23.09375 C 12.671875 23.824219 12.636719 24.550781 12.640625 25.292969 C 12.640625 25.335938 12.640625 25.382812 12.640625 25.429688 C 12.652344 28.4375 13.832031 31.066406 15.890625 33.234375 C 15.925781 33.273438 15.964844 33.3125 16.003906 33.351562 C 16.261719 33.617188 16.535156 33.851562 16.828125 34.078125 C 16.867188 34.109375 16.867188 34.109375 16.910156 34.140625 C 17.636719 34.714844 18.425781 35.1875 19.265625 35.578125 C 19.316406 35.601562 19.371094 35.625 19.421875 35.652344 C 20.230469 36.011719 21.074219 36.25 21.9375 36.421875 C 21.972656 36.429688 22.007812 36.4375 22.046875 36.445312 C 24.753906 37.015625 27.835938 36.289062 30.144531 34.832031 C 31.222656 34.125 32.222656 33.269531 32.992188 32.230469 C 33.042969 32.160156 33.097656 32.089844 33.152344 32.019531 C 33.464844 31.617188 33.730469 31.191406 33.984375 30.75 C 34.003906 30.71875 34.023438 30.683594 34.042969 30.652344 C 34.535156 29.792969 34.882812 28.851562 35.109375 27.890625 C 35.125 27.820312 35.125 27.820312 35.144531 27.746094 C 35.492188 26.238281 35.515625 24.476562 35.15625 22.96875 C 35.144531 22.925781 35.136719 22.882812 35.125 22.835938 C 34.566406 20.464844 33.246094 18.242188 31.3125 16.734375 C 31.253906 16.6875 31.195312 16.640625 31.136719 16.59375 C 30.574219 16.148438 29.976562 15.753906 29.332031 15.441406 C 28.917969 15.234375 28.597656 14.9375 28.40625 14.511719 C 28.257812 13.976562 28.3125 13.402344 28.5625 12.910156 C 28.8125 12.535156 29.128906 12.207031 29.578125 12.09375 C 30.867188 11.9375 32.179688 12.957031 33.148438 13.703125 C 33.238281 13.773438 33.332031 13.847656 33.421875 13.921875 C 33.464844 13.953125 33.503906 13.988281 33.546875 14.019531 C 34.242188 14.574219 34.914062 15.207031 35.484375 15.890625 C 35.515625 15.925781 35.515625 15.925781 35.546875 15.960938 C 36.214844 16.742188 36.789062 17.605469 37.265625 18.515625 C 37.289062 18.558594 37.289062 18.558594 37.3125 18.605469 C 39.011719 21.832031 39.378906 25.585938 38.484375 29.109375 C 38.472656 29.15625 38.460938 29.203125 38.449219 29.253906 C 37.902344 31.375 36.800781 33.378906 35.34375 35.015625 C 35.304688 35.058594 35.265625 35.105469 35.222656 35.152344 C 34.746094 35.683594 34.25 36.210938 33.683594 36.652344 C 33.554688 36.753906 33.433594 36.863281 33.308594 36.96875 C 32.679688 37.492188 32 37.9375 31.285156 38.328125 C 31.210938 38.371094 31.132812 38.410156 31.058594 38.453125 C 29.78125 39.171875 28.394531 39.632812 26.964844 39.929688 C 26.921875 39.9375 26.882812 39.945312 26.839844 39.953125 C 25.972656 40.121094 25.113281 40.195312 24.230469 40.1875 C 24.082031 40.1875 23.933594 40.1875 23.78125 40.1875 C 22.992188 40.1875 22.210938 40.128906 21.429688 39.996094 C 21.382812 39.988281 21.335938 39.980469 21.289062 39.972656 C 18.609375 39.496094 16.085938 38.234375 14.0625 36.421875 C 14.039062 36.402344 14.015625 36.378906 13.992188 36.359375 C 13.410156 35.839844 12.855469 35.300781 12.375 34.6875 C 12.308594 34.605469 12.242188 34.527344 12.171875 34.445312 C 11.742188 33.921875 11.359375 33.355469 11.023438 32.765625 C 10.984375 32.699219 10.949219 32.636719 10.910156 32.570312 C 9.347656 29.898438 8.746094 26.640625 9.140625 23.578125 C 9.148438 23.53125 9.152344 23.484375 9.160156 23.433594 C 9.546875 20.480469 10.832031 17.765625 12.84375 15.570312 C 12.933594 15.472656 13.015625 15.375 13.101562 15.277344 C 13.398438 14.941406 13.722656 14.632812 14.0625 14.34375 C 14.105469 14.304688 14.148438 14.269531 14.191406 14.230469 C 17.273438 11.542969 17.273438 11.542969 18.726562 12.207031 Z M 18.726562 12.207031 "/>
<path style=" stroke:none;fill-rule:nonzero;fill:rgb(99.607843%,36.470589%,0%);fill-opacity:1;" d="M 25.253906 8.496094 C 25.824219 8.882812 26.1875 9.402344 26.34375 10.078125 C 26.363281 10.25 26.363281 10.421875 26.363281 10.597656 C 26.363281 10.648438 26.363281 10.699219 26.363281 10.75 C 26.363281 10.917969 26.363281 11.082031 26.363281 11.25 C 26.363281 11.371094 26.363281 11.492188 26.363281 11.609375 C 26.363281 11.902344 26.363281 12.195312 26.363281 12.488281 C 26.363281 12.726562 26.363281 12.960938 26.363281 13.199219 C 26.363281 13.234375 26.363281 13.265625 26.363281 13.300781 C 26.363281 13.371094 26.363281 13.441406 26.363281 13.507812 C 26.363281 14.152344 26.363281 14.796875 26.363281 15.441406 C 26.359375 15.996094 26.363281 16.546875 26.363281 17.097656 C 26.363281 17.742188 26.363281 18.382812 26.363281 19.027344 C 26.363281 19.09375 26.363281 19.164062 26.363281 19.230469 C 26.363281 19.265625 26.363281 19.300781 26.363281 19.332031 C 26.363281 19.570312 26.363281 19.808594 26.363281 20.042969 C 26.363281 20.363281 26.363281 20.683594 26.363281 21.003906 C 26.363281 21.121094 26.363281 21.238281 26.363281 21.355469 C 26.363281 21.515625 26.363281 21.675781 26.363281 21.835938 C 26.363281 21.878906 26.363281 21.925781 26.363281 21.972656 C 26.355469 22.664062 26.09375 23.300781 25.617188 23.800781 C 25.074219 24.296875 24.449219 24.46875 23.730469 24.441406 C 23.46875 24.421875 23.25 24.355469 23.015625 24.234375 C 22.976562 24.214844 22.9375 24.195312 22.898438 24.175781 C 22.277344 23.839844 21.929688 23.335938 21.699219 22.6875 C 21.636719 22.457031 21.644531 22.226562 21.644531 21.992188 C 21.644531 21.941406 21.644531 21.890625 21.644531 21.835938 C 21.640625 21.667969 21.640625 21.496094 21.644531 21.328125 C 21.640625 21.207031 21.640625 21.082031 21.640625 20.960938 C 21.640625 20.664062 21.640625 20.367188 21.640625 20.070312 C 21.640625 19.828125 21.640625 19.585938 21.640625 19.347656 C 21.640625 18.660156 21.640625 17.976562 21.640625 17.289062 C 21.640625 17.253906 21.640625 17.21875 21.640625 17.179688 C 21.640625 17.140625 21.640625 17.105469 21.640625 17.066406 C 21.640625 16.46875 21.636719 15.871094 21.636719 15.269531 C 21.636719 14.65625 21.632812 14.039062 21.636719 13.425781 C 21.636719 13.082031 21.632812 12.734375 21.632812 12.390625 C 21.632812 12.066406 21.632812 11.742188 21.632812 11.414062 C 21.632812 11.296875 21.632812 11.175781 21.632812 11.058594 C 21.632812 10.894531 21.632812 10.734375 21.632812 10.570312 C 21.632812 10.523438 21.632812 10.476562 21.632812 10.429688 C 21.636719 9.808594 21.878906 9.324219 22.289062 8.871094 C 22.328125 8.835938 22.367188 8.800781 22.40625 8.765625 C 22.4375 8.734375 22.4375 8.734375 22.472656 8.699219 C 23.230469 7.976562 24.394531 7.984375 25.253906 8.496094 Z M 25.253906 8.496094 "/>
<path style=" stroke:none;fill-rule:nonzero;fill:rgb(99.607843%,23.529412%,4.313726%);fill-opacity:1;" d="M 12.703125 27.28125 C 12.816406 27.492188 12.867188 27.707031 12.921875 27.9375 C 12.933594 27.980469 12.945312 28.023438 12.957031 28.066406 C 12.96875 28.105469 12.976562 28.148438 12.988281 28.1875 C 12.996094 28.226562 13.007812 28.261719 13.015625 28.300781 C 13.03125 28.414062 13.019531 28.488281 12.984375 28.59375 C 12.863281 28.269531 12.800781 27.953125 12.75 27.609375 C 12.71875 27.609375 12.6875 27.609375 12.65625 27.609375 C 12.671875 27.5 12.6875 27.394531 12.703125 27.28125 Z M 12.703125 27.28125 "/>
<path style=" stroke:none;fill-rule:nonzero;fill:rgb(99.607843%,25.882354%,3.921569%);fill-opacity:1;" d="M 34.828125 28.96875 C 34.890625 29.089844 34.863281 29.140625 34.835938 29.273438 C 34.824219 29.3125 34.816406 29.347656 34.808594 29.386719 C 34.78125 29.484375 34.78125 29.484375 34.734375 29.578125 C 34.703125 29.578125 34.671875 29.578125 34.640625 29.578125 C 34.609375 29.671875 34.578125 29.765625 34.546875 29.859375 C 34.480469 29.664062 34.558594 29.542969 34.632812 29.359375 C 34.65625 29.3125 34.65625 29.3125 34.675781 29.261719 C 34.773438 29.023438 34.773438 29.023438 34.828125 28.96875 Z M 34.828125 28.96875 "/>
<path style=" stroke:none;fill-rule:nonzero;fill:rgb(99.607843%,26.274511%,1.568628%);fill-opacity:1;" d="M 22.171875 9 C 22.1875 9.03125 22.203125 9.0625 22.21875 9.09375 C 22.183594 9.195312 22.183594 9.195312 22.128906 9.3125 C 22.109375 9.347656 22.09375 9.386719 22.074219 9.425781 C 22.058594 9.457031 22.046875 9.484375 22.03125 9.515625 C 21.984375 9.515625 21.9375 9.515625 21.890625 9.515625 C 21.949219 9.304688 22.027344 9.164062 22.171875 9 Z M 22.171875 9 "/>
<path style=" stroke:none;fill-rule:nonzero;fill:rgb(99.215686%,33.725491%,5.098039%);fill-opacity:1;" d="M 9.46875 21.75 C 9.515625 21.75 9.5625 21.75 9.609375 21.75 C 9.59375 21.859375 9.578125 21.964844 9.5625 22.078125 C 9.515625 22.078125 9.46875 22.078125 9.421875 22.078125 C 9.4375 21.96875 9.453125 21.863281 9.46875 21.75 Z M 9.46875 21.75 "/>
<path style=" stroke:none;fill-rule:nonzero;fill:rgb(99.607843%,25.490198%,6.666667%);fill-opacity:1;" d="M 18.890625 12.375 C 19.046875 12.441406 19.152344 12.527344 19.265625 12.65625 C 19.265625 12.6875 19.265625 12.71875 19.265625 12.75 C 19.171875 12.75 19.171875 12.75 19.050781 12.640625 C 18.9375 12.515625 18.9375 12.515625 18.890625 12.375 Z M 18.890625 12.375 "/>
</g>
</svg>
