<?xml version="1.0" encoding="UTF-8"?>
<svg version="1.1" xmlns="http://www.w3.org/2000/svg" width="1024" height="1024">
<path d="M0 0 C5.8507264 7.36012756 10.26218718 16.38100775 10 26 C8.47882891 36.68894328 5.22763709 45.75184352 -3 53 C-3.4753418 53.44239014 -3.95068359 53.88478027 -4.44042969 54.34057617 C-9.17527633 58.62136685 -14.28346684 61.59199038 -19.875 64.625 C-33.46620223 72.19514581 -46.089019 80.98602057 -58 91 C-58.57443848 91.48033691 -59.14887695 91.96067383 -59.74072266 92.45556641 C-61.66567406 94.06849696 -63.5840268 95.68891749 -65.5 97.3125 C-66.11254639 97.82876953 -66.72509277 98.34503906 -67.35620117 98.87695312 C-69.99020303 101.13012206 -72.06559604 103.09839406 -74 106 C-74.66 106 -75.32 106 -76 106 C-76.23976563 106.56203125 -76.47953125 107.1240625 -76.7265625 107.703125 C-78.2711132 110.48900172 -80.16834499 112.45050837 -82.375 114.75 C-92.82371118 126.08828399 -101.46814564 138.57261556 -109 152 C-109.3722168 152.6501709 -109.74443359 153.3003418 -110.12792969 153.97021484 C-121.28222766 173.54491422 -128.62782834 194.91548354 -133.1875 216.9375 C-133.34250977 217.67492432 -133.49751953 218.41234863 -133.65722656 219.17211914 C-136.53232331 233.87801977 -137.38363899 248.6724973 -137.3125 263.625 C-137.31034485 264.44905334 -137.3081897 265.27310669 -137.30596924 266.12213135 C-137.06844105 323.05063552 -115.79787131 379.43535109 -75.60107422 420.36816406 C-73.85658682 422.14616861 -72.13418838 423.94435341 -70.41015625 425.7421875 C-62.47160714 433.93568677 -54.21657564 441.27918806 -45 448 C-43.95457031 448.76699219 -42.90914062 449.53398438 -41.83203125 450.32421875 C-12.14503009 471.60963172 -12.14503009 471.60963172 22 481 C22 481.66 22 482.32 22 483 C43.13980222 487.72202407 63.56120854 491.80404617 85.25 492.6875 C86.44214111 492.73616211 87.63428223 492.78482422 88.86254883 492.83496094 C89.98556396 492.87266602 91.1085791 492.91037109 92.265625 492.94921875 C93.27399414 492.98362061 94.28236328 493.01802246 95.32128906 493.0534668 C97.75992856 493.0047918 99.66754674 492.64354363 102 492 C104.04237519 492.03182171 106.08425601 492.09990426 108.125 492.1875 C151.55922295 492.95473307 198.86727131 474.01815545 233 448 C233.89074219 447.32195312 234.78148437 446.64390625 235.69921875 445.9453125 C241.17269638 441.6662044 246.31768233 437.07055871 251.41796875 432.35546875 C253.54591209 430.41424359 255.71378145 428.57777694 257.9375 426.75 C263.97002258 421.49467358 268.93748442 415.16577622 274 409 C274.83660156 407.99066406 275.67320312 406.98132813 276.53515625 405.94140625 C301.17894747 375.12664942 316.58579758 337.76965807 323 299 C323.12987305 298.24009766 323.25974609 297.48019531 323.39355469 296.69726562 C332.76684485 238.88218176 317.25463752 179.32021086 283.51855469 131.91845703 C278.20954193 124.70768135 272.36010749 118.00756843 266.265625 111.453125 C264.28114714 109.30441449 262.38404214 107.11119955 260.5 104.875 C246.40487702 88.75696586 227.57373668 75.84065351 208.97119141 65.48730469 C195.66397941 58.07858852 183.87537166 50.93584687 179.1875 35.625 C176.80011414 25.73440143 177.47475553 16.69906271 182.25390625 7.6171875 C188.24963079 -2.02171571 196.08823874 -7.94578949 207.0390625 -10.7890625 C228.24862271 -14.99047896 251.16810079 0.07759194 268.24072266 11.49902344 C273.22979265 14.90488952 278.13587916 18.41839784 283 22 C283.84949219 22.62519531 284.69898438 23.25039063 285.57421875 23.89453125 C292.06487055 28.82550702 298.19327288 34.22161987 304.34472656 39.56494141 C305.85730302 40.87628719 307.37748607 42.1788459 308.8984375 43.48046875 C309.71570313 44.18816406 310.53296875 44.89585937 311.375 45.625 C312.43847656 46.54152344 312.43847656 46.54152344 313.5234375 47.4765625 C315 49 315 49 315 51 C315.59425781 51.2578125 316.18851563 51.515625 316.80078125 51.78125 C319.19302503 53.10696947 320.44781639 54.40378864 322.1875 56.5 C324.71580076 59.50202448 327.3098468 62.39266213 330 65.25 C385.47056744 126.78914234 407.88427453 206.67996041 403.89324951 288.17993164 C403.41061536 296.19493981 402.37872462 304.09404565 401 312 C400.75056641 313.46228027 400.75056641 313.46228027 400.49609375 314.95410156 C393.64082797 353.83869246 379.59852359 392.82528931 358 426 C357.60748047 426.61198242 357.21496094 427.22396484 356.81054688 427.85449219 C340.46670494 453.30270883 320.13483436 477.47604723 297 497 C296.17628906 497.71285156 295.35257813 498.42570312 294.50390625 499.16015625 C241.48809627 544.38168626 173.84727034 570.85760388 104 572 C103.21995605 572.01514648 102.43991211 572.03029297 101.63623047 572.04589844 C91.02049698 572.22373095 80.42163246 571.9378265 69.8125 571.5625 C68.65862793 571.52334473 67.50475586 571.48418945 66.31591797 571.44384766 C65.24873535 571.40179199 64.18155273 571.35973633 63.08203125 571.31640625 C62.12530518 571.27974854 61.1685791 571.24309082 60.18286133 571.20532227 C58 571 58 571 57 570 C54.78919255 569.56902188 52.56789338 569.19174356 50.34375 568.8359375 C48.92660915 568.60328004 47.50962307 568.36967834 46.09277344 568.13525391 C45.34378784 568.01192688 44.59480225 567.88859985 43.82312012 567.76153564 C-0.35114306 560.41153804 -41.59050504 544.6639269 -78.9375 519.9375 C-79.50650024 519.56222168 -80.07550049 519.18694336 -80.66174316 518.80029297 C-88.49167236 513.6169807 -95.8279806 508.05599716 -103 502 C-104.14332871 501.06493394 -105.28766192 500.13109284 -106.43359375 499.19921875 C-120.84664938 487.1477301 -134.49286365 473.87111775 -146 459 C-147.26794582 457.49233318 -148.53612832 455.98484221 -149.81201172 454.48388672 C-154.0507345 449.49168328 -157.96819068 444.39340903 -161.625 438.9609375 C-162.98839186 436.89627762 -162.98839186 436.89627762 -165 435 C-166.03196324 433.33185488 -167.02579284 431.64002068 -168 429.9375 C-170.04758041 426.36584427 -172.10399093 422.81088078 -174.26171875 419.3046875 C-216.4305048 350.31141288 -226.25247222 266.33154697 -208.11669922 188.19433594 C-200.06757677 156.54694708 -186.18261823 126.10252257 -168 99 C-167.54689453 98.32308105 -167.09378906 97.64616211 -166.62695312 96.94873047 C-151.31805133 74.27412592 -133.02277064 52.59886662 -112 35 C-111.49887695 34.56913086 -110.99775391 34.13826172 -110.48144531 33.69433594 C-84.96068336 11.79625572 -32.36568077 -32.36568077 0 0 Z " fill="#FE7C1E" transform="translate(418,252)"/>
<path d="M0 0 C8.12109322 6.6643198 13.17456275 15.65284702 15 26 C15.27702236 29.76522111 15.27447359 33.5159745 15.26069641 37.29011536 C15.26643473 38.96706664 15.26643473 38.96706664 15.27228898 40.67789572 C15.28258556 44.41397413 15.27863311 48.14989789 15.2746582 51.88598633 C15.27900654 54.56879686 15.28412588 57.25159617 15.29014587 59.93440247 C15.30287516 66.45954415 15.30468874 72.98464465 15.30234561 79.50979666 C15.30056014 84.81605711 15.302317 90.1223051 15.30657005 95.42856407 C15.30716524 96.18475318 15.30776043 96.94094229 15.30837366 97.72004622 C15.30958545 99.2564289 15.31079959 100.79281159 15.31201603 102.32919427 C15.32288496 116.72792388 15.32073227 131.12663004 15.31463119 145.52536096 C15.30946382 158.68329859 15.32071384 171.84116213 15.33972941 184.99908511 C15.35912552 198.52451692 15.36736062 212.04991372 15.36360615 225.57535952 C15.36169664 233.16286735 15.36415716 240.75031216 15.37832069 248.33780861 C15.39025816 254.79794359 15.39161303 261.25797677 15.37953053 267.71811322 C15.37365806 271.0106662 15.37413683 274.30299561 15.38453293 277.59554291 C15.39501349 281.17351095 15.38688849 284.75098321 15.3742218 288.32893372 C15.38159609 289.35755534 15.38897037 290.38617695 15.39656812 291.44596893 C15.29937405 304.54740981 11.27473182 316.51447882 2 326 C-9.72461152 335.13695312 -21.33731661 338.26244364 -36 337 C-47.87677086 334.71282603 -58.05500838 327.87849954 -65 318 C-68.36944037 312.19756113 -71.08773623 306.78963661 -71.16494751 299.99528503 C-71.17618589 299.20182049 -71.18742428 298.40835594 -71.19900322 297.59084702 C-71.20632532 296.72321857 -71.21364742 295.85559013 -71.22119141 294.96166992 C-71.23265764 294.03300739 -71.24412388 293.10434486 -71.25593758 292.14754105 C-71.29297437 289.00855127 -71.32253379 285.86954223 -71.3515625 282.73046875 C-71.37545658 280.45752321 -71.39948794 278.18457911 -71.42364502 275.91163635 C-71.50096568 268.33700325 -71.56429839 260.76228229 -71.625 253.1875 C-71.63560707 251.89010391 -71.64621414 250.59270782 -71.65714264 249.2559967 C-72.04522262 201.1000908 -72.09226107 152.94413872 -71.90218127 104.7871688 C-71.87864812 98.539046 -71.86775814 92.29097838 -71.86212158 86.04281616 C-71.85484259 78.36063366 -71.82935193 70.67876275 -71.78114891 62.99672395 C-71.7567143 59.04311868 -71.73990749 55.08988933 -71.74423981 51.13620186 C-71.74788196 47.48308802 -71.7279133 43.83084242 -71.69019389 40.17792857 C-71.67594204 38.23964287 -71.68573766 36.30122511 -71.69668007 34.3629179 C-71.52881988 22.52146993 -68.10277646 12.2588654 -60.30078125 3.22265625 C-43.63258846 -12.87955376 -18.13133217 -14.74729178 0 0 Z " fill="#FE7C1E" transform="translate(540,166)"/>
<path d="M0 0 C25.06356046 25.06356046 26.318086 89.53137348 26.375 122.5625 C26.34688621 138.87619709 25.80882536 154.89348766 23 171 C22.83371094 171.97485352 22.66742187 172.94970703 22.49609375 173.95410156 C15.64082797 212.83869246 1.59852359 251.82528931 -20 285 C-20.39251953 285.61198242 -20.78503906 286.22396484 -21.18945312 286.85449219 C-37.53329506 312.30270883 -57.86516564 336.47604723 -81 356 C-81.82371094 356.71285156 -82.64742187 357.42570312 -83.49609375 358.16015625 C-116.31499353 386.15408602 -171.69397472 424.35721801 -217 423 C-214.32107971 420.32107971 -211.37843412 419.84362625 -207.8125 418.9375 C-207.16474609 418.76412109 -206.51699219 418.59074219 -205.84960938 418.41210938 C-202.67445971 417.5842232 -199.56890422 416.94102719 -196.31640625 416.49609375 C-193.26305639 416.03935001 -190.93848074 415.34701689 -188.125 414.125 C-184.94299482 412.78875009 -181.78565167 411.55651697 -178.5 410.5 C-155.46582041 402.95570425 -132.88644714 390.74607048 -113 377 C-112.14148438 376.40960937 -111.28296875 375.81921875 -110.3984375 375.2109375 C-106.14890473 372.2650962 -102.00801015 369.26969249 -98 366 C-96.61055432 364.90848614 -95.21420413 363.82572642 -93.8125 362.75 C-93.13832031 362.22921875 -92.46414063 361.7084375 -91.76953125 361.171875 C-90 360 -90 360 -88 360 C-88 359.34 -88 358.68 -88 358 C-86.56640625 356.5546875 -86.56640625 356.5546875 -84.5625 354.875 C-83.4796875 353.95267578 -83.4796875 353.95267578 -82.375 353.01171875 C-81.199375 352.01591797 -81.199375 352.01591797 -80 351 C-78.34908096 349.56834364 -76.70312845 348.13093753 -75.0625 346.6875 C-74.31097656 346.03136719 -73.55945313 345.37523437 -72.78515625 344.69921875 C-70.91375803 343.11045152 -70.91375803 343.11045152 -70 341 C-69.01 341 -68.02 341 -67 341 C-66.75378906 340.42507813 -66.50757813 339.85015625 -66.25390625 339.2578125 C-64.80206947 336.64360173 -63.09712451 334.93663792 -60.9375 332.875 C-58.08428067 330.22095 -58.08428067 330.22095 -56 327 C-55.34 327 -54.68 327 -54 327 C-53.731875 326.41734375 -53.46375 325.8346875 -53.1875 325.234375 C-51.98519009 322.97213399 -50.66174087 321.19423682 -49 319.25 C-48.484375 318.63640625 -47.96875 318.0228125 -47.4375 317.390625 C-46 316 -46 316 -44 316 C-43.835 315.195625 -43.67 314.39125 -43.5 313.5625 C-42.07136423 310.16949005 -40.9584176 308.67952519 -38.5 306.0625 C-30.7204587 297.66397169 -24.9115014 287.63194093 -19 277.875 C-18.43937866 276.95243408 -18.43937866 276.95243408 -17.86743164 276.01123047 C-15.92927659 272.76108664 -14.2894476 269.55941264 -13 266 C-12.34 266 -11.68 266 -11 266 C-10.9175 265.34 -10.835 264.68 -10.75 264 C-9.90942884 260.63771537 -8.5513467 257.9168831 -6.9375 254.8671875 C-5.87362707 252.8593422 -5.87362707 252.8593422 -5 250 C-4.34 250 -3.68 250 -3 250 C-2.938125 249.21625 -2.87625 248.4325 -2.8125 247.625 C-2.06806365 244.30366857 -1.12494265 242.10283188 0.4375 239.125 C2.72134872 234.76852557 4.02019346 230.80995936 5 226 C5.66 226 6.32 226 7 226 C7.061875 224.989375 7.12375 223.97875 7.1875 222.9375 C7.87406371 217.28344592 9.88136724 212.03285397 11.74609375 206.68359375 C13.50542199 201.51522449 15.01069541 196.37051064 16 191 C16.51771007 188.18957392 17.13989204 185.53725574 17.96826172 182.79711914 C19.77823031 176.13586939 20.37809863 169.28439831 21.125 162.4375 C21.21437836 161.62773712 21.30375671 160.81797424 21.39584351 159.9836731 C22.96870207 145.30038789 23.36011546 130.69785311 23.3125 115.9375 C23.30854218 114.41925125 23.30854218 114.41925125 23.30450439 112.87033081 C23.29199861 109.98498777 23.26869796 107.10004977 23.23828125 104.21484375 C23.23072311 103.35499878 23.22316498 102.49515381 23.21537781 101.60925293 C23.15192659 97.60468639 22.92462896 93.91591642 22 90 C21.82809841 87.81439403 21.68452378 85.62645724 21.5625 83.4375 C20.66996831 70.25549354 18.25601281 57.04824336 13.87890625 44.55859375 C12.70576091 41.14343733 11.63539782 37.69758911 10.5625 34.25 C10.34682373 33.56123779 10.13114746 32.87247559 9.90893555 32.1628418 C8.89035835 28.90163793 7.89339815 25.63739808 6.9296875 22.359375 C5.50324838 17.52969924 4.11962243 12.95655307 1.75 8.5 C0.10674589 5.21349177 -0.44772039 3.58176314 0 0 Z " fill="#FB7511" transform="translate(796,393)"/>
<path d="M0 0 C0.66 0 1.32 0 2 0 C2.06871144 34.71872855 2.12155179 69.43744154 2.15319599 104.15622343 C2.15694797 108.25787628 2.16083095 112.35952899 2.16479492 116.46118164 C2.16558185 117.27772467 2.16636878 118.09426771 2.16717956 118.93555447 C2.18022284 132.14572418 2.20387073 145.35585461 2.23145839 158.56600104 C2.25954262 172.12733052 2.27618264 185.68863947 2.28226548 199.24999684 C2.28637567 207.6137362 2.29934337 215.9773645 2.3237494 224.34106966 C2.33964386 230.08139458 2.34439198 235.82166233 2.34050413 241.56200764 C2.33858833 244.87071718 2.34311892 248.17919306 2.35761642 251.48787689 C2.37259722 255.08377124 2.36893279 258.67919489 2.36076355 262.27510071 C2.36950207 263.30917929 2.3782406 264.34325786 2.38724393 265.40867215 C2.3069895 278.52681288 -1.71298279 290.50191422 -11 300 C-22.72461152 309.13695312 -34.33731661 312.26244364 -49 311 C-60.87677086 308.71282603 -71.05500838 301.87849954 -78 292 C-81.65266988 285.70981784 -84.12791912 280.2906796 -84.12025452 272.96331787 C-84.12162918 271.94812073 -84.12300385 270.93292358 -84.12442017 269.88696289 C-84.11902725 268.22540161 -84.11902725 268.22540161 -84.11352539 266.53027344 C-84.11367142 265.35926086 -84.11381744 264.18824829 -84.1139679 262.98175049 C-84.11327072 259.10760654 -84.10548737 255.23351056 -84.09765625 251.359375 C-84.09523621 248.67466254 -84.09431861 245.98995014 -84.09336853 243.30523682 C-84.09026134 236.95882041 -84.08205619 230.61242125 -84.07201904 224.26601243 C-84.06083891 217.03994105 -84.05534266 209.81386884 -84.05032361 202.58779097 C-84.03987308 187.72518465 -84.02228548 172.86259347 -84 158 C-83.67 158 -83.34 158 -83 158 C-82.99761165 158.57738576 -82.99522329 159.15477152 -82.99276257 159.74965382 C-82.93346139 173.84032883 -82.85781562 187.93083829 -82.76428509 202.02132893 C-82.71944167 208.83557393 -82.68000112 215.649768 -82.65356445 222.46411133 C-82.62801646 229.04538966 -82.58703526 235.62645763 -82.53681374 242.20760155 C-82.52018201 244.71325017 -82.50864482 247.21893817 -82.50238609 249.72463417 C-82.49270505 253.2454557 -82.46459674 256.76569917 -82.43237305 260.28637695 C-82.43380814 261.31281311 -82.43524323 262.33924927 -82.4367218 263.39678955 C-82.35829111 269.49161001 -81.49061472 274.81150747 -79.70818806 280.64544964 C-78.87940392 283.40095218 -78.38507027 286.15047999 -78 289 C-77.34 289 -76.68 289 -76 289 C-74.484375 290.79296875 -74.484375 290.79296875 -72.75 293.1875 C-68.27041794 299.0860801 -64.4058299 303.06037788 -57 305 C-57 305.66 -57 306.32 -57 307 C-55.5459375 306.9690625 -55.5459375 306.9690625 -54.0625 306.9375 C-51 307 -51 307 -50 308 C-41.77347842 308.5408875 -34.02256517 307.76136447 -26 306 C-24.33377986 305.66444178 -22.66723675 305.33047014 -21 305 C-21 304.34 -21 303.68 -21 303 C-19.00715862 301.6559907 -17.00580329 300.32458708 -15 299 C-6.2658656 290.88973235 -1.26911489 282.39338144 -0.53844261 270.41103172 C-0.27922255 263.33777724 -0.31525243 256.26506532 -0.34057617 249.18823242 C-0.33488267 246.46711301 -0.32168572 243.74604176 -0.30880737 241.02494812 C-0.28507052 235.18705369 -0.27933246 229.34937024 -0.28615379 223.51143456 C-0.29598945 215.07102367 -0.27816073 206.63084526 -0.25378648 198.19047204 C-0.21497393 184.49343123 -0.19823852 170.7964573 -0.19555664 157.09936523 C-0.19290526 143.80147881 -0.17975085 130.50367047 -0.15258789 117.20581055 C-0.15007782 115.97431749 -0.15007782 115.97431749 -0.14751705 114.71794578 C-0.13905699 110.59885999 -0.13039168 106.47977466 -0.12162435 102.36068952 C-0.04926576 68.24046848 -0.01280785 34.12029516 0 0 Z " fill="#FD7510" transform="translate(553,192)"/>
<path d="M0 0 C2.42449103 2.42449103 2.4532873 3.60651773 2.9765625 6.9453125 C5.77238181 23.67117892 9.80978021 40.19639739 16 56 C16.58974609 57.56621094 16.58974609 57.56621094 17.19140625 59.1640625 C17.62324219 60.30617188 18.05507812 61.44828125 18.5 62.625 C18.9021875 63.68976562 19.304375 64.75453125 19.71875 65.8515625 C20.95694238 69.01778145 20.95694238 69.01778145 22.53125 72.0234375 C24 75 24 75 24.9453125 77.91015625 C26.22459081 81.65796788 27.97813311 84.97166328 29.875 88.4375 C30.21402344 89.06720703 30.55304688 89.69691406 30.90234375 90.34570312 C34.15006559 96.3533711 37.53622765 102.2760896 41.0625 108.125 C41.54847656 108.93195313 42.03445312 109.73890625 42.53515625 110.5703125 C43.01855469 111.37210938 43.50195312 112.17390625 44 113 C44.45890625 113.78890625 44.9178125 114.5778125 45.390625 115.390625 C47.3519693 118.57066868 49.50224333 121.59729527 51.6875 124.625 C52.12666748 125.23529053 52.56583496 125.84558105 53.01831055 126.47436523 C53.91474489 127.71931378 54.81195711 128.9637026 55.70996094 130.20751953 C56.89992505 131.86094809 58.07936279 133.52193889 59.2578125 135.18359375 C59.93585938 136.13363281 60.61390625 137.08367187 61.3125 138.0625 C62.20388672 139.31740234 62.20388672 139.31740234 63.11328125 140.59765625 C65.22596478 143.28771913 67.57461419 145.58911575 70 148 C72.35811359 150.67736589 74.61884745 153.43619959 76.89453125 156.18359375 C79.77731556 159.6348144 82.79793483 162.83592544 86 166 C86.78375 166.969375 87.5675 167.93875 88.375 168.9375 C90.76354024 171.86854781 93.46796421 174.21917728 96.375 176.625 C98 178 98 178 100.0625 180.125 C102.08895488 182.20414383 102.08895488 182.20414383 105.25 184.125 C106.61125 185.053125 106.61125 185.053125 108 186 C108 186.66 108 187.32 108 188 C108.57878906 188.28230469 109.15757812 188.56460938 109.75390625 188.85546875 C115.68799947 191.87927625 120.29021766 195.29021766 125 200 C130.62573499 204.43376546 136.38536605 208.385445 142.71484375 211.734375 C145.25467756 213.14105219 147.64137721 214.71044557 150.0625 216.3125 C161.98732054 223.99402997 175.19245041 229.74139602 188.359375 234.9296875 C192.36475365 236.5135137 196.30445053 238.13554903 200.1875 240 C205.35898357 242.33403241 210.78541785 243.66605088 216.26953125 245.0546875 C219.54929294 245.88578941 222.80552639 246.77217044 226.0625 247.6875 C229.6897118 248.68362981 233.26568734 249.49536315 237 250 C237 250.66 237 251.32 237 252 C229.26589354 251.57062485 222.30659041 249.89064362 214.9375 247.5625 C213.81424316 247.21123047 212.69098633 246.85996094 211.53369141 246.49804688 C194.5611727 241.06873594 177.84282541 234.55546422 162.11669922 226.13183594 C160.46339105 225.24778326 158.80183395 224.37915257 157.13720703 223.51660156 C149.49625235 219.50547474 142.24340529 215.09051806 135.08789062 210.27587891 C133.3741318 209.12441666 131.65245573 207.98558229 129.9296875 206.84765625 C122.60107883 201.96952026 115.72537265 196.68644902 109 191 C107.85675201 190.06483525 106.71243002 189.13097977 105.56640625 188.19921875 C91.15335062 176.1477301 77.50713635 162.87111775 66 148 C64.73205418 146.49233318 63.46387168 144.98484221 62.18798828 143.48388672 C57.9492655 138.49168328 54.03180932 133.39340903 50.375 127.9609375 C49.01160814 125.89627762 49.01160814 125.89627762 47 124 C45.96803676 122.33185488 44.97420716 120.64002068 44 118.9375 C41.95241959 115.36584427 39.89600907 111.81088078 37.73828125 108.3046875 C19.31919969 78.16882467 -1.36787659 36.24872965 0 0 Z " fill="#FB7510" transform="translate(206,563)"/>
<path d="M0 0 C-1.54402511 4.01081079 -4.10387171 5.94606664 -7.4375 8.5625 C-11.22317459 11.51084644 -11.22317459 11.51084644 -14.72265625 14.77734375 C-16 16 -16 16 -18 16 C-18 16.66 -18 17.32 -18 18 C-19.57421875 19.55078125 -19.57421875 19.55078125 -21.6875 21.3125 C-24.94538314 24.08284781 -28.01430155 26.933607 -31 30 C-31.78375 30.76570313 -32.5675 31.53140625 -33.375 32.3203125 C-35.86453563 34.86171346 -38.09183365 37.47315213 -40.3125 40.25 C-43.09821633 43.70226561 -45.92857045 47.05384148 -48.9375 50.3125 C-55.70766874 57.84092764 -61.56646504 66.36747736 -66.796875 75.0234375 C-68.29535664 77.48522877 -69.87045935 79.89380682 -71.4375 82.3125 C-76.49964668 90.25786936 -80.85348617 98.54749103 -85 107 C-85.66 107 -86.32 107 -87 107 C-87.12979248 107.7312207 -87.25958496 108.46244141 -87.39331055 109.21582031 C-87.95994311 111.81617355 -88.7130612 114.08391242 -89.70703125 116.546875 C-90.2165332 117.8153125 -90.2165332 117.8153125 -90.73632812 119.109375 C-91.09146484 119.98078125 -91.44660156 120.8521875 -91.8125 121.75 C-92.15603516 122.6059375 -92.49957031 123.461875 -92.85351562 124.34375 C-94.53703517 128.5130667 -96.2794746 132.63444136 -98.16015625 136.71875 C-99.78678279 140.34199969 -100.83440575 143.8446549 -101.625 147.75 C-102.44013754 151.72019934 -103.45841926 155.25704196 -105 159 C-106.43279931 164.36304742 -107.3823482 169.86871934 -108.46484375 175.31176758 C-108.80787901 177.0349251 -109.15395777 178.75748119 -109.50390625 180.47924805 C-114.10909919 203.44402169 -115.7162152 226.49338126 -114.17773438 249.85595703 C-113.80084031 256.52304734 -113.63910203 263.20069219 -113.4375 269.875 C-113.39366146 271.28247658 -113.3496394 272.68994745 -113.30541992 274.09741211 C-113.20217229 277.39823281 -113.10038946 280.69909136 -113 284 C-115.47275885 280.29086173 -115.65725612 277.008205 -116.0625 272.6875 C-116.1860083 271.44117798 -116.1860083 271.44117798 -116.31201172 270.16967773 C-122.82201828 200.71886518 -108.14687106 131.351275 -69 73 C-68.54689453 72.32308105 -68.09378906 71.64616211 -67.62695312 70.94873047 C-52.31265804 48.26613772 -34.01493913 26.62051157 -13 9 C-12.05253906 8.19820313 -11.10507812 7.39640625 -10.12890625 6.5703125 C-2.25885903 0 -2.25885903 0 0 0 Z " fill="#FB7611" transform="translate(319,278)"/>
<path d="M0 0 C0.33 0 0.66 0 1 0 C1.39551971 8.042234 0.04110306 15.05838208 -3.0390625 22.515625 C-4.0589354 24.93690472 -4.0589354 24.93690472 -4.45996094 27.35253906 C-6.93801434 39.50082617 -12.39187259 51.7585225 -18.55078125 62.45703125 C-20.13722192 65.11731908 -20.13722192 65.11731908 -21.5 68.625 C-23.3325059 72.74813828 -25.67131244 76.36459606 -28.13671875 80.13671875 C-29.29258071 81.91291753 -30.42509052 83.70484161 -31.51953125 85.51953125 C-39.60876764 98.85141198 -49.85565431 113.13271913 -62 123 C-64.20301293 125.14652542 -66.3593811 127.32726564 -68.48046875 129.5546875 C-90.2343463 151.98029999 -118.8471796 168.49738702 -148.3918457 178.13769531 C-152.22112004 179.38976884 -155.99055686 180.7407329 -159.75 182.1875 C-166.6458335 184.72969534 -173.6393452 186.15829365 -181 186 C-180.505 185.01 -180.505 185.01 -180 184 C-177.0233161 183.1642271 -174.07452895 182.43374609 -171.0625 181.75 C-141.68593132 174.69417176 -114.08453304 162.35877613 -90 144 C-89.10925781 143.32195312 -88.21851563 142.64390625 -87.30078125 141.9453125 C-81.82730362 137.6662044 -76.68231767 133.07055871 -71.58203125 128.35546875 C-69.45408791 126.41424359 -67.28621855 124.57777694 -65.0625 122.75 C-59.02997742 117.49467358 -54.06251558 111.16577622 -49 105 C-48.16339844 103.99066406 -47.32679688 102.98132813 -46.46484375 101.94140625 C-23.90121271 73.72769525 -8.54374745 39.48238941 -1.65625 4.0859375 C-1 1 -1 1 0 0 Z " fill="#FD7610" transform="translate(741,556)"/>
<path d="M0 0 C0.33 0 0.66 0 1 0 C1.08975098 0.61182129 1.17950195 1.22364258 1.27197266 1.85400391 C8.55948172 50.59772893 27.44904984 96.778345 62.39892578 132.36816406 C64.14341318 134.14616861 65.86581162 135.94435341 67.58984375 137.7421875 C75.52839286 145.93568677 83.78342436 153.27918806 93 160 C94.04542969 160.76699219 95.09085937 161.53398438 96.16796875 162.32421875 C125.85496991 183.60963172 125.85496991 183.60963172 160 193 C160 193.66 160 194.32 160 195 C160.59167969 195.12117187 161.18335938 195.24234375 161.79296875 195.3671875 C166.03803585 196.26744643 170.02439661 197.20456621 174 199 C174 199.33 174 199.66 174 200 C170.28828531 200.28551651 167.35731956 199.90570091 163.8828125 198.69140625 C163.09044189 198.4178833 162.29807129 198.14436035 161.48168945 197.86254883 C160.66273193 197.57790771 159.84377441 197.2932666 159 197 C157.41318149 196.47268951 155.82594017 195.94664969 154.23828125 195.421875 C144.00815939 191.97652382 134.52543409 188.10938738 125 183 C123.61996537 182.30046635 122.23837691 181.60399192 120.85546875 180.91015625 C111.24995697 176.04243973 102.54538681 170.54016044 94 164 C93.41621582 163.55897949 92.83243164 163.11795898 92.23095703 162.66357422 C81.82242901 154.78262872 72.2132771 146.25896278 63 137 C62.43796875 136.46117187 61.8759375 135.92234375 61.296875 135.3671875 C56.0477793 130.30366589 51.53614327 124.70007458 47 119 C46.29746094 118.12988281 45.59492188 117.25976562 44.87109375 116.36328125 C44.23300781 115.56277344 43.59492188 114.76226563 42.9375 113.9375 C42.36902344 113.22464844 41.80054688 112.51179687 41.21484375 111.77734375 C40 110 40 110 40 108 C39.34 108 38.68 108 38 108 C37.566875 107.071875 37.13375 106.14375 36.6875 105.1875 C35.27921588 102.12889265 35.27921588 102.12889265 33.58984375 100.63671875 C31.52670617 98.51275157 30.29091219 96.22202486 28.875 93.625 C28.35679687 92.68914062 27.83859375 91.75328125 27.3046875 90.7890625 C26.06776237 88.14485728 25.42852316 85.87424071 25 83 C24.34 83 23.68 83 23 83 C22.73960937 82.32195312 22.47921875 81.64390625 22.2109375 80.9453125 C21.07374151 78.17935838 19.82921244 75.4847652 18.53857422 72.78759766 C10.79559186 56.57740957 5.73681863 39.55045153 2 22 C1.56300781 20.07414063 1.56300781 20.07414063 1.1171875 18.109375 C0.82708298 16.78147722 0.5380019 15.45335539 0.25 14.125 C-0.01296875 12.93132813 -0.2759375 11.73765625 -0.546875 10.5078125 C-1.03084612 6.7612085 -0.69977818 3.69747658 0 0 Z " fill="#FD7611" transform="translate(280,540)"/>
<path d="M0 0 C0.66 0 1.32 0 2 0 C-2.12296921 15.3674307 -17.01142251 21.66928173 -29.72338867 29.06958008 C-44.05537581 37.46815132 -56.84726662 47.58280171 -69.5 58.3125 C-70.11230469 58.8286084 -70.72460938 59.3447168 -71.35546875 59.87646484 C-73.98981401 62.12971802 -76.0654225 64.09813375 -78 67 C-78.66 67 -79.32 67 -80 67 C-80.23976563 67.56203125 -80.47953125 68.1240625 -80.7265625 68.703125 C-82.2711132 71.48900172 -84.16834499 73.45050837 -86.375 75.75 C-96.82371118 87.08828399 -105.46814564 99.57261556 -113 113 C-113.3722168 113.6501709 -113.74443359 114.3003418 -114.12792969 114.97021484 C-131.29152195 145.09063656 -138.1681596 177.90191791 -142 212 C-142.33 212 -142.66 212 -143 212 C-144.09333801 186.00285182 -137.71078925 160.94801686 -128 137 C-127.33291016 135.33324219 -127.33291016 135.33324219 -126.65234375 133.6328125 C-123.24906995 125.28594527 -119.59323342 117.7092905 -114.4921875 110.2734375 C-113.08323448 108.12681275 -111.87751897 105.96084659 -110.6875 103.6875 C-105.19019088 93.58860945 -97.31231267 84.81416813 -90 76 C-89.17242187 74.97390625 -88.34484375 73.9478125 -87.4921875 72.890625 C-75.58945685 58.19648562 -75.58945685 58.19648562 -69 56 C-69 55.34 -69 54.68 -69 54 C-67.26608049 52.39365985 -65.461909 50.8624713 -63.625 49.375 C-62.62726563 48.55773437 -61.62953125 47.74046875 -60.6015625 46.8984375 C-58 45 -58 45 -56 45 C-56 44.34 -56 43.68 -56 43 C-54.48828125 41.80859375 -54.48828125 41.80859375 -52.3125 40.4375 C-48.4413016 37.95317953 -44.68242732 35.35844567 -40.9375 32.6875 C-36.03955667 29.2400143 -30.99177076 26.20742883 -25.75 23.3125 C-14.28090139 16.97152923 -6.35159316 11.76220955 0 0 Z " fill="#FD7710" transform="translate(422,291)"/>
<path d="M0 0 C3.70196942 1.23398981 4.31217164 2.89426616 6.1328125 6.2109375 C7 8 7 8 8 11 C8.66 11 9.32 11 10 11 C10 11.66 10 12.32 10 13 C10.56460938 13.10957031 11.12921875 13.21914063 11.7109375 13.33203125 C14.34124038 14.09957697 16.29745658 15.24321003 18.625 16.6875 C22.3939242 19.01742223 22.3939242 19.01742223 26.20703125 21.2734375 C34.81238938 26.24676181 42.90701483 32.02266254 51.07397461 37.67480469 C52.70606364 38.79775807 54.35162901 39.90108601 56 41 C56 41.66 56 42.32 56 43 C56.721875 43.2475 57.44375 43.495 58.1875 43.75 C63.41928057 46.07523581 67.00145665 50.00145665 71 54 C71.763125 54.556875 72.52625 55.11375 73.3125 55.6875 C73.869375 56.120625 74.42625 56.55375 75 57 C75 57.66 75 58.32 75 59 C75.66 59 76.32 59 77 59 C78.18068402 60.41682083 79.35620475 61.83839143 80.5 63.28515625 C82.09632045 65.11011635 83.79788274 66.54686949 85.6875 68.0625 C88.55451953 70.42467478 90.02533568 72.31793478 91 76 C91.66 76 92.32 76 93 76 C93.33 77.32 93.66 78.64 94 80 C94.66 80 95.32 80 96 80 C97.67118745 82.11303018 99.22196696 84.22416559 100.75 86.4375 C101.19666016 87.07405518 101.64332031 87.71061035 102.10351562 88.36645508 C105.47835173 93.19366729 108.77818698 98.06931995 112 103 C112.99 104.485 112.99 104.485 114 106 C114 106.99 114 107.98 114 109 C114.66 109 115.32 109 116 109 C116.51949219 110.05058594 117.03898438 111.10117187 117.57421875 112.18359375 C118.27816605 113.60180075 118.98262766 115.01975254 119.6875 116.4375 C120.05327148 117.17379639 120.41904297 117.91009277 120.79589844 118.66870117 C122.68408285 122.44715317 124.61829781 126.1638812 126.75 129.8125 C129.49375437 134.63708822 131.20330226 139.76614136 133 145 C133.49480016 146.31446911 133.99435223 147.62716547 134.5 148.9375 C135.00380418 150.29025597 135.50334702 151.64460221 136 153 C136.53173828 154.44246094 136.53173828 154.44246094 137.07421875 155.9140625 C139.04149801 161.4776663 140.53757115 166.0867173 140 172 C138 171 138 171 137.36499023 169.29199219 C137.18137939 168.55110352 136.99776855 167.81021484 136.80859375 167.046875 C136.59114502 166.21091797 136.37369629 165.37496094 136.1496582 164.51367188 C135.79713989 163.1456543 135.79713989 163.1456543 135.4375 161.75 C126.27934832 128.22262832 107.92392559 96.87489515 84.30078125 71.48828125 C82.30347565 69.32820712 80.39456662 67.12452055 78.5 64.875 C63.61629943 47.85521278 43.78132396 34.84377198 24.1875 23.9375 C14.6797777 18.62035307 5.22463178 12.97429704 0 3 C0 2.01 0 1.02 0 0 Z " fill="#FD7612" transform="translate(600,292)"/>
<path d="M0 0 C1.03253906 0.73734375 2.06507813 1.4746875 3.12890625 2.234375 C10.88996275 7.89756936 18.1031587 14.14125653 25.29492188 20.49902344 C26.83768517 21.85711461 28.39461372 23.19907264 29.953125 24.5390625 C30.77296875 25.24804688 31.5928125 25.95703125 32.4375 26.6875 C33.13746094 27.28949219 33.83742188 27.89148438 34.55859375 28.51171875 C36 30 36 30 36 32 C37.32 32.66 38.64 33.32 40 34 C39.67 34.66 39.34 35.32 39 36 C37.82780457 35.21654285 36.66236332 34.42297164 35.5 33.625 C34.8503125 33.18414062 34.200625 32.74328125 33.53125 32.2890625 C33.0259375 31.86367188 32.520625 31.43828125 32 31 C32 30.34 32 29.68 32 29 C31.34 29 30.68 29 30 29 C28.824375 27.5459375 28.824375 27.5459375 27.625 26.0625 C24.0361672 21.7245419 19.74658491 18.68316905 15.2109375 15.390625 C12.01370508 13.05024313 9.01093351 10.51378431 6 7.9375 C-0.768682 2.2286511 -7.95697719 -3.20612132 -16 -7 C-16 -7.66 -16 -8.32 -16 -9 C-16.86625 -9.25910156 -17.7325 -9.51820313 -18.625 -9.78515625 C-22.05512723 -11.01984325 -24.88591593 -12.55201941 -28 -14.4375 C-33.77537365 -17.91926823 -39.43254824 -20.90816314 -45.8125 -23.125 C-50.89440994 -24.89440994 -50.89440994 -24.89440994 -52 -26 C-63.17895611 -27.79128674 -73.28467598 -26.57177467 -84 -23 C-84 -22.34 -84 -21.68 -84 -21 C-84.886875 -20.484375 -85.77375 -19.96875 -86.6875 -19.4375 C-91.05969352 -16.66363194 -92.85352703 -12.57457536 -95 -8 C-95.32226562 -7.35933594 -95.64453125 -6.71867187 -95.9765625 -6.05859375 C-99.21394674 1.18770089 -98.72495714 9.39071328 -97 17 C-97.99 17.495 -97.99 17.495 -99 18 C-102.20502659 8.78554856 -101.81162809 0.00407239 -98 -9 C-92.32905566 -19.77656089 -84.09064069 -26.10956564 -72.62890625 -29.75390625 C-48.22524227 -35.96219837 -18.55399885 -13.4768795 0 0 Z " fill="#FC7611" transform="translate(697,271)"/>
<path d="M0 0 C5.89796894 4.83998276 10.27728515 10.83091614 13 18 C12.65625 20.33203125 12.65625 20.33203125 12 22 C11.32880451 20.5437455 10.66318193 19.08492133 10 17.625 C9.62875 16.81289062 9.2575 16.00078125 8.875 15.1640625 C8 13 8 13 8 11 C7.34 11 6.68 11 6 11 C6 10.01 6 9.02 6 8 C5.34 8 4.68 8 4 8 C-0.76744186 3.69767442 -0.76744186 3.69767442 -2 0 C-2.99 0 -3.98 0 -5 0 C-5 -0.66 -5 -1.32 -5 -2 C-5.71671875 -2.1340625 -6.4334375 -2.268125 -7.171875 -2.40625 C-9.91671344 -2.98251442 -12.563901 -3.69577874 -15.25 -4.5 C-16.12140625 -4.7578125 -16.9928125 -5.015625 -17.890625 -5.28125 C-20 -6 -20 -6 -21 -7 C-22.41570123 -7.08651611 -23.835595 -7.10704904 -25.25390625 -7.09765625 C-26.53491211 -7.09282227 -26.53491211 -7.09282227 -27.84179688 -7.08789062 C-29.18854492 -7.07532227 -29.18854492 -7.07532227 -30.5625 -7.0625 C-31.46419922 -7.05798828 -32.36589844 -7.05347656 -33.29492188 -7.04882812 C-35.53001314 -7.03700225 -37.76497437 -7.0205222 -40 -7 C-40 -6.34 -40 -5.68 -40 -5 C-41.19625 -4.54625 -42.3925 -4.0925 -43.625 -3.625 C-44.35203125 -3.34785156 -45.0790625 -3.07070312 -45.828125 -2.78515625 C-47.64887231 -2.12693645 -49.50956013 -1.58067774 -51.375 -1.0625 C-54.60023576 0.24295257 -54.52066605 0.99309294 -56 4 C-57.26112263 5.40306717 -58.55603108 6.77616763 -59.875 8.125 C-66.77554403 15.71434607 -69.10097624 24.38652187 -69.15821838 34.485672 C-69.1680072 35.7967392 -69.17779602 37.1078064 -69.18788147 38.45860291 C-69.19378494 39.9044491 -69.19959543 41.35029567 -69.20532227 42.79614258 C-69.21490606 44.32395693 -69.22491643 45.85176866 -69.23532104 47.37957764 C-69.2623219 51.52169462 -69.28335752 55.66382294 -69.30332303 59.80597901 C-69.32521235 64.13684284 -69.35258661 68.46767192 -69.37937927 72.79850769 C-69.42926634 80.99711858 -69.47421995 89.19574879 -69.51740164 97.39439744 C-69.56680809 106.7293043 -69.62171357 116.06417629 -69.67708123 125.3990494 C-69.79084009 144.59933387 -69.89769238 163.79965127 -70 183 C-70.33 183 -70.66 183 -71 183 C-71.11705032 162.49355942 -71.20509415 141.98718708 -71.25906086 121.48048115 C-71.28478994 111.95782076 -71.31983863 102.43536853 -71.37719727 92.9128418 C-71.42719502 84.60835647 -71.45932947 76.30402197 -71.47044247 67.9993903 C-71.47693366 63.60628429 -71.49207783 59.21360959 -71.52865028 54.82064247 C-71.56286933 50.67634593 -71.57300143 46.53265378 -71.56553841 42.38822937 C-71.56690149 40.87623993 -71.57667888 39.36422793 -71.59602737 37.85236168 C-71.75662718 24.64296263 -69.11208184 13.4278349 -60.30078125 3.22265625 C-43.63258846 -12.87955376 -18.13133217 -14.74729178 0 0 Z " fill="#FC740F" transform="translate(540,166)"/>
<path d="M0 0 C2.29199177 0.14063135 4.58359186 0.28765943 6.875 0.4375 C8.15117187 0.51871094 9.42734375 0.59992187 10.7421875 0.68359375 C14 1 14 1 16 2 C18.39685111 2.37829463 20.78001826 2.70735265 23.1875 3 C24.48042969 3.165 25.77335937 3.33 27.10546875 3.5 C41.34838207 5.03382886 55.53054752 5.18629712 69.84179688 5.18530273 C73.36079987 5.18749117 76.87948956 5.20571405 80.3984375 5.22460938 C100.12015985 6.27928473 100.12015985 6.27928473 119 2 C121.204364 1.77049681 123.41392173 1.58924067 125.625 1.4375 C127.40777344 1.31181641 127.40777344 1.31181641 129.2265625 1.18359375 C130.14179687 1.12300781 131.05703125 1.06242188 132 1 C120.74962601 12.25037399 83.21461271 9.07556459 68.375 9.125 C60.18336329 9.10591881 51.99848272 8.85210108 43.8125 8.5625 C42.08169189 8.50376709 42.08169189 8.50376709 40.31591797 8.44384766 C39.24873535 8.40179199 38.18155273 8.35973633 37.08203125 8.31640625 C35.64694214 8.26141968 35.64694214 8.26141968 34.18286133 8.20532227 C32 8 32 8 31 7 C28.96926163 6.58343346 26.92761468 6.21980222 24.8828125 5.87890625 C23.01302734 5.55889648 23.01302734 5.55889648 21.10546875 5.23242188 C19.11550218 4.89634191 17.12520243 4.56253359 15.13427734 4.23217773 C13.21607297 3.91231823 11.29941477 3.58322955 9.3828125 3.25390625 C7.65635498 2.96495483 7.65635498 2.96495483 5.89501953 2.67016602 C3 2 3 2 0 0 Z " fill="#FB7512" transform="translate(444,815)"/>
<path d="M0 0 C2.24157383 2.86395212 4.41958532 5.71618117 6 9 C5.505 10.485 5.505 10.485 5 12 C4.54560547 11.22076172 4.54560547 11.22076172 4.08203125 10.42578125 C1.45230575 6.04829973 -1.20891017 2.48370417 -5 -1 C-5.99 -1.99 -5.99 -1.99 -7 -3 C-18.55028631 -8.68894699 -29.66385239 -9.75280622 -42 -6 C-45.75927632 -4.50788892 -49.37820454 -2.79719956 -53 -1 C-53.67675781 -0.6803125 -54.35351562 -0.360625 -55.05078125 -0.03125 C-66.85195551 5.63722294 -77.98147499 12.80673695 -88.65625 20.3515625 C-91.40588137 22.2854699 -94.19182643 24.15251739 -97 26 C-97.66 25.67 -98.32 25.34 -99 25 C-74.78736735 4.23781623 -29.08413065 -29.08413065 0 0 Z " fill="#FC7710" transform="translate(418,252)"/>
<path d="M0 0 C3.95984398 5.93976598 4.43981224 13.23267557 5.109375 20.203125 C5.19346619 21.06762268 5.27755737 21.93212036 5.36419678 22.82281494 C6.15273577 31.59726524 6.30379962 40.34172674 6.26074219 49.14697266 C6.24994396 51.76357863 6.26076638 54.37950717 6.2734375 56.99609375 C6.28264934 67.33807896 6.19518311 77.84856635 4 88 C3.01 88.495 3.01 88.495 2 89 C1.97207634 87.39594109 1.9532057 85.79172506 1.9375 84.1875 C1.92589844 83.29417969 1.91429687 82.40085937 1.90234375 81.48046875 C1.98117621 78.67087981 2.19574612 75.97769266 2.48828125 73.1875 C3.22564496 65.40670131 3.2394089 57.62089171 3.25 49.8125 C3.25233643 49.02396637 3.25467285 48.23543274 3.25708008 47.42300415 C3.27052621 35.34638725 2.50792254 23.6191735 0.65625 11.66796875 C0.04431167 7.71825743 -0.13072091 3.99243458 0 0 Z " fill="#FC7713" transform="translate(740,465)"/>
<path d="M0 0 C20.03939931 16.20206752 37.89937355 41.69868501 49 65 C48.67 65.66 48.34 66.32 48 67 C38 52.3 38 52.3 38 49 C37.34 49 36.68 49 36 49 C32 42.25 32 42.25 32 40 C31.34 40 30.68 40 30 40 C29.06223256 38.64544703 28.13524417 37.28255352 27.25390625 35.890625 C25.85087993 33.77515852 24.32302585 31.80476053 22.75 29.8125 C20.10658662 26.46042686 17.59407067 23.04477497 15.125 19.5625 C8.68827907 10.06391186 8.68827907 10.06391186 0 3 C0 2.01 0 1.02 0 0 Z " fill="#FB740F" transform="translate(737,307)"/>
<path d="M0 0 C-7.92606509 4.38858539 -18.01433199 4.42990571 -26.875 5.125 C-28.44121094 5.25237549 -28.44121094 5.25237549 -30.0390625 5.38232422 C-37.37781375 5.9493888 -44.63829208 6.25881004 -52 6 C-52.33 5.34 -52.66 4.68 -53 4 C-51.98679687 3.90912109 -51.98679687 3.90912109 -50.953125 3.81640625 C-50.06109375 3.73261719 -49.1690625 3.64882813 -48.25 3.5625 C-47.36828125 3.48128906 -46.4865625 3.40007813 -45.578125 3.31640625 C-43.08942502 3.07788347 -43.08942502 3.07788347 -41.09765625 2.4609375 C-38.10199197 1.80267235 -35.25017522 1.9874824 -32.1875 2.0625 C-25.43853356 2.16221386 -19.0913766 1.442929 -12.41015625 0.4453125 C-8.21210726 -0.10288634 -4.22515937 -0.14825121 0 0 Z " fill="#FD7511" transform="translate(559,742)"/>
<path d="M0 0 C5.39442019 -0.12531286 10.18063372 0.25835729 15.5 1.3125 C26.59070086 3.42094491 37.79330582 4.67965075 49 6 C49 6.33 49 6.66 49 7 C40.3476049 7.18258278 32.04384615 7.35193093 23.54296875 5.5 C20.83047275 4.96666745 18.19454603 4.74707212 15.4375 4.5625 C10.01651013 4.14069387 5.12507729 2.76765139 0 1 C0 0.67 0 0.34 0 0 Z " fill="#FD7510" transform="translate(454,740)"/>
<path d="M0 0 C0.66 0.33 1.32 0.66 2 1 C4.73391774 9.51998703 3.75251999 16.65364907 1 25 C0.34 24.67 -0.32 24.34 -1 24 C-0.649375 22.824375 -0.29875 21.64875 0.0625 20.4375 C1.61519231 13.66211539 0.66743366 6.84570467 0 0 Z " fill="#FE7711" transform="translate(424,265)"/>
<path d="M0 0 C3.26309597 2.72931793 4.90051326 6.32166572 6.75 10.0625 C7.07871094 10.69994141 7.40742187 11.33738281 7.74609375 11.99414062 C8.56378581 13.63124982 9.28949826 15.31360322 10 17 C9.67 17.66 9.34 18.32 9 19 C7.67492391 16.96560073 6.36518622 14.92366893 5.0625 12.875 C4.68931641 12.30523437 4.31613281 11.73546875 3.93164062 11.1484375 C1.58971107 7.43510776 0.41825813 4.36847382 0 0 Z " fill="#F97412" transform="translate(786,374)"/>
<path d="M0 0 C4 1 4 1 4 1 Z " fill="#F37A20" transform="translate(512,744)"/>
<path d="" fill="#FB7E22" transform="translate(0,0)"/>
<path d="" fill="#F97D22" transform="translate(0,0)"/>
<path d="" fill="#ED7722" transform="translate(0,0)"/>
<path d="" fill="#F17A23" transform="translate(0,0)"/>
<path d="" fill="#F97D23" transform="translate(0,0)"/>
<path d="" fill="#F57C21" transform="translate(0,0)"/>
<path d="" fill="#F87B23" transform="translate(0,0)"/>
<path d="" fill="#EE7922" transform="translate(0,0)"/>
<path d="" fill="#F97C21" transform="translate(0,0)"/>
<path d="" fill="#FC7D23" transform="translate(0,0)"/>
<path d="" fill="#FB7E21" transform="translate(0,0)"/>
<path d="" fill="#FB7E1F" transform="translate(0,0)"/>
<path d="M0 0 C2 1 2 1 2 1 Z " fill="#ED7821" transform="translate(360,248)"/>
<path d="" fill="#FB7F22" transform="translate(0,0)"/>
<path d="" fill="#F67C20" transform="translate(0,0)"/>
<path d="" fill="#F77C22" transform="translate(0,0)"/>
<path d="M0 0 C2 1 2 1 2 1 Z " fill="#E97522" transform="translate(533,160)"/>
<path d="M0 0 C2 1 2 1 2 1 Z " fill="#EA7721" transform="translate(489,160)"/>
<path d="" fill="#2D190B" transform="translate(0,0)"/>
<path d="" fill="#F47C1F" transform="translate(0,0)"/>
<path d="" fill="#EC7620" transform="translate(0,0)"/>
<path d="" fill="#F07622" transform="translate(0,0)"/>
<path d="" fill="#EF7922" transform="translate(0,0)"/>
<path d="" fill="#EF751F" transform="translate(0,0)"/>
<path d="" fill="#F0781E" transform="translate(0,0)"/>
<path d="" fill="#EF781F" transform="translate(0,0)"/>
<path d="" fill="#EC7920" transform="translate(0,0)"/>
<path d="" fill="#F97D21" transform="translate(0,0)"/>
<path d="" fill="#F97D24" transform="translate(0,0)"/>
<path d="" fill="#F87E22" transform="translate(0,0)"/>
<path d="" fill="#F67F1F" transform="translate(0,0)"/>
<path d="" fill="#EF7621" transform="translate(0,0)"/>
<path d="" fill="#F37C21" transform="translate(0,0)"/>
<path d="" fill="#F57A22" transform="translate(0,0)"/>
<path d="" fill="#EF7722" transform="translate(0,0)"/>
<path d="" fill="#F47C21" transform="translate(0,0)"/>
<path d="" fill="#ED7823" transform="translate(0,0)"/>
<path d="" fill="#F1751F" transform="translate(0,0)"/>
<path d="" fill="#F07B21" transform="translate(0,0)"/>
<path d="" fill="#EE7720" transform="translate(0,0)"/>
<path d="" fill="#F77C22" transform="translate(0,0)"/>
<path d="" fill="#F07A22" transform="translate(0,0)"/>
<path d="" fill="#EE7A23" transform="translate(0,0)"/>
<path d="" fill="#EF7823" transform="translate(0,0)"/>
<path d="" fill="#F07822" transform="translate(0,0)"/>
<path d="" fill="#EF7C24" transform="translate(0,0)"/>
<path d="" fill="#E87622" transform="translate(0,0)"/>
<path d="" fill="#EB7621" transform="translate(0,0)"/>
<path d="" fill="#E87521" transform="translate(0,0)"/>
<path d="" fill="#F77D25" transform="translate(0,0)"/>
<path d="" fill="#F77C23" transform="translate(0,0)"/>
<path d="" fill="#F97E23" transform="translate(0,0)"/>
<path d="" fill="#F67D1E" transform="translate(0,0)"/>
<path d="" fill="#F07A23" transform="translate(0,0)"/>
<path d="" fill="#F47B22" transform="translate(0,0)"/>
<path d="" fill="#F47D20" transform="translate(0,0)"/>
<path d="" fill="#F87F24" transform="translate(0,0)"/>
<path d="" fill="#F77E22" transform="translate(0,0)"/>
<path d="" fill="#F67B1E" transform="translate(0,0)"/>
<path d="" fill="#F97F24" transform="translate(0,0)"/>
<path d="" fill="#F87E21" transform="translate(0,0)"/>
<path d="" fill="#F87B22" transform="translate(0,0)"/>
<path d="" fill="#F87D20" transform="translate(0,0)"/>
<path d="" fill="#EB7520" transform="translate(0,0)"/>
<path d="" fill="#F97D23" transform="translate(0,0)"/>
<path d="" fill="#F97D21" transform="translate(0,0)"/>
<path d="" fill="#F17621" transform="translate(0,0)"/>
<path d="" fill="#FC7E21" transform="translate(0,0)"/>
<path d="" fill="#FA7E20" transform="translate(0,0)"/>
<path d="" fill="#FA7D22" transform="translate(0,0)"/>
<path d="" fill="#FB7C23" transform="translate(0,0)"/>
<path d="" fill="#FA7E20" transform="translate(0,0)"/>
<path d="" fill="#FA7F20" transform="translate(0,0)"/>
<path d="" fill="#FD7F21" transform="translate(0,0)"/>
<path d="" fill="#FB8020" transform="translate(0,0)"/>
<path d="" fill="#FE7F23" transform="translate(0,0)"/>
<path d="" fill="#FD8023" transform="translate(0,0)"/>
<path d="" fill="#FD8123" transform="translate(0,0)"/>
<path d="" fill="#FB8025" transform="translate(0,0)"/>
<path d="" fill="#EE781F" transform="translate(0,0)"/>
<path d="" fill="#FA7D21" transform="translate(0,0)"/>
<path d="" fill="#F37B23" transform="translate(0,0)"/>
<path d="" fill="#F67C23" transform="translate(0,0)"/>
<path d="" fill="#F37B22" transform="translate(0,0)"/>
<path d="" fill="#EA7620" transform="translate(0,0)"/>
<path d="" fill="#E87722" transform="translate(0,0)"/>
<path d="" fill="#301C10" transform="translate(0,0)"/>
</svg>
